<svg width="49" height="49" viewBox="0 0 49 49" fill="none" xmlns="http://www.w3.org/2000/svg">
<path d="M34.7083 18.375V14.2917C34.7083 13.2087 34.2781 12.1701 33.5124 11.4044C32.7466 10.6386 31.708 10.2084 30.625 10.2084H10.2083C9.12537 10.2084 8.08675 10.6386 7.32098 11.4044C6.55521 12.1701 6.125 13.2087 6.125 14.2917V26.5417C6.125 27.6247 6.55521 28.6633 7.32098 29.4291C8.08675 30.1948 9.12537 30.625 10.2083 30.625H14.2917M18.375 38.7917H38.7917C39.8746 38.7917 40.9132 38.3615 41.679 37.5957C42.4448 36.83 42.875 35.7913 42.875 34.7084V22.4584C42.875 21.3754 42.4448 20.3368 41.679 19.571C40.9132 18.8052 39.8746 18.375 38.7917 18.375H18.375C17.292 18.375 16.2534 18.8052 15.4876 19.571C14.7219 20.3368 14.2917 21.3754 14.2917 22.4584V34.7084C14.2917 35.7913 14.7219 36.83 15.4876 37.5957C16.2534 38.3615 17.292 38.7917 18.375 38.7917ZM32.6667 28.5834C32.6667 29.6663 32.2365 30.705 31.4707 31.4707C30.7049 32.2365 29.6663 32.6667 28.5833 32.6667C27.5004 32.6667 26.4618 32.2365 25.696 31.4707C24.9302 30.705 24.5 29.6663 24.5 28.5834C24.5 27.5004 24.9302 26.4618 25.696 25.696C26.4618 24.9302 27.5004 24.5 28.5833 24.5C29.6663 24.5 30.7049 24.9302 31.4707 25.696C32.2365 26.4618 32.6667 27.5004 32.6667 28.5834Z" stroke="black" stroke-width="4" stroke-linecap="round" stroke-linejoin="round"/>
</svg>
